<svg xmlns="http://www.w3.org/2000/svg" viewBox="0 0 64 64" id="japan"><g data-name="25-Japan"><rect width="62" height="62" x="1" y="1" fill="#eef2fa" rx="4"></rect><path fill="#dce1eb" d="M23 39A22 22 0 0 1 1 17v42a4 4 0 0 0 4 4h54a4 4 0 0 0 4-4V17a22 22 0 0 1-22 22Z"></path><path fill="#cdd2e1" d="M59 59H5a4 4 0 0 1-4-4v4a4 4 0 0 0 4 4h54a4 4 0 0 0 4-4v-4a4 4 0 0 1-4 4Z"></path><path fill="#f7faff" d="M59 1H5a4 4 0 0 0-4 4v4a4 4 0 0 1 4-4h54a4 4 0 0 1 4 4V5a4 4 0 0 0-4-4Z"></path><circle cx="32" cy="32" r="16" fill="#e21743"></circle><path fill="#ba0028" d="M32 48a16 16 0 0 0 14.737-9.76A22.021 22.021 0 0 1 41 39H23a22.021 22.021 0 0 1-5.737-.76A16 16 0 0 0 32 48Z"></path></g></svg>